# xmcd
#
# Track frame offsets:
#	150
#	17325
#	30646
#	49172
#	61210
#	74748
#	88226
#	101352
#	115190
#	127753
#	141336
#	153869
#	169035
#	180713
#	196471
#	209327
#	224733
#	237979
#
# Disc length: 3301 seconds
#
# Revision: 1
# Processed by: cddbd v1.5.2PL0 Copyright (c) Steve Scherf et al.
# Submitted via: audiograbber 1.83.01
#
DISCID=030ce312
DTITLE=Hatzenfelder Musikanten - Marsch and Volksmusik - CD 2 - 
DYEAR=2013
DGENRE=Volksmusik
TTITLE0=Herzilein
TTITLE1=Erinnerungen
TTITLE2=Blau blüht der Enzian
TTITLE3=Amboss Polka
TTITLE4=Drei weiße Birken
TTITLE5=Party Plausch
TTITLE6=Liechtensteiner Polka
TTITLE7=Rosamunde 
TTITLE8=Heidi
TTITLE9=Schneewalzer
TTITLE10=Jetzt kommen die lustigen Tage 
TTITLE11=Oberkrainer Perlen 
TTITLE12=Bei uns Zu Hause 
TTITLE13=Zillertaler Hochzeitsmarsch 
TTITLE14=Heimweh Melodie
TTITLE15=Die Süße aus dem Sauerland
TTITLE16=Ja, Ja, die Volksmusik
TTITLE17=Die lustigen Holzhackerbuam
EXTD=
EXTT0=
EXTT1=
EXTT2=
EXTT3=
EXTT4=
EXTT5=
EXTT6=
EXTT7=
EXTT8=
EXTT9=
EXTT10=
EXTT11=
EXTT12=
EXTT13=
EXTT14=
EXTT15=
EXTT16=
EXTT17=
PLAYORDER=
